<?xml version="1.0" encoding="UTF-8"?>
<svg id="Layer_1" xmlns="http://www.w3.org/2000/svg" viewBox="-5 -5 325.21 285.65">
  <defs><style>.cls-1{fill:#1d1d1b;}</style></defs>
  <path class="cls-1" d="M212.66,204.25h-125.86c-37.03,0-67.16-30.13-67.16-67.16v-1.09c0-37.03,30.13-67.16,67.16-67.16h125.86v26.5h-125.86c-22.42,0-40.66,18.23-40.66,40.66v1.09c0,22.42,18.23,40.66,40.66,40.66h125.86v26.5h0Z"/>
  <path class="cls-1" d="M285.54,82.64v-1.09c0-37.03-30.13-67.16-67.16-67.16h-125.86v26.5h125.86c22.42,0,40.66,18.23,40.66,40.65v1.09c0,22.42-18.23,40.65-40.66,40.65h-125.86v26.5h125.86c22.42,0,40.66,18.23,40.66,40.65v1.09c0,22.42-18.23,40.65-40.66,40.65h-125.86v26.5h125.86c37.03,0,67.16-30.13,67.16-67.16v-1.09c0-22.09-10.77-41.66-27.27-53.91,16.5-12.25,27.27-31.82,27.27-53.91v.04Z"/>
</svg>
